<?xml version="1.0" encoding="UTF-8"?>
<svg xmlns="http://www.w3.org/2000/svg" width="101" height="101" viewBox="0 0 101 101">
  <g id="Grupo_37306" data-name="Grupo 37306" transform="translate(-633 -373)">
    <circle id="Elipse_62" data-name="Elipse 62" cx="50.5" cy="50.5" r="50.5" transform="translate(633 373)" fill="#fff" opacity="0.5"></circle>
    <g id="Grupo_37208" data-name="Grupo 37208">
      <path id="Icon_awesome-tools" data-name="Icon awesome-tools" d="M46.78,36.94,35.849,26.008a6.931,6.931,0,0,0-7.972-1.3l-9.951-9.951v-5.8L5.976,0,0,5.975,8.963,17.924h5.8l9.951,9.951a6.947,6.947,0,0,0,1.3,7.972L36.941,46.779a3.471,3.471,0,0,0,4.92,0l4.92-4.92a3.488,3.488,0,0,0,0-4.92Z" transform="translate(659.104 399.607)" fill="#45546a"></path>
      <path id="Icon_awesome-tools-2" data-name="Icon awesome-tools" d="M30.966,21A9.822,9.822,0,0,1,37.958,23.9l1.811,1.811a13.214,13.214,0,0,0,4.089-2.754A13.425,13.425,0,0,0,47.4,10.194a1.117,1.117,0,0,0-1.876-.513l-6.945,6.945-6.339-1.055L31.181,9.233l6.945-6.945A1.127,1.127,0,0,0,37.594.4,13.448,13.448,0,0,0,24.842,3.939,13.229,13.229,0,0,0,21,13.611l7.664,7.664A10.17,10.17,0,0,1,30.966,21Zm-9.7,7.655-5.293-5.293L1.747,37.6A5.974,5.974,0,0,0,10.2,46.051L21.734,34.513a10.025,10.025,0,0,1-.467-5.853ZM5.976,44.063a2.24,2.24,0,1,1,2.24-2.24A2.247,2.247,0,0,1,5.976,44.063Z" transform="translate(659.104 399.6)" fill="#6b7991"></path>
      <path id="Icon_awesome-tools-3" data-name="Icon awesome-tools" d="M5.976,44.063a2.24,2.24,0,1,1,2.24-2.24A2.247,2.247,0,0,1,5.976,44.063Z" transform="translate(659.104 399.6)" fill="#fff" opacity="0.5"></path>
    </g>
  </g>
</svg>
